<?xml version="1.0" encoding="UTF-8" standalone="no"?>
<svg width="2825px" height="847px" version="1.1" xmlns="http://www.w3.org/2000/svg" xmlns:xlink="http://www.w3.org/1999/xlink" xmlns:sketch="http://www.bohemiancoding.com/sketch/ns">
    <!-- Generator: Sketch 3.4.2 (15855) - http://www.bohemiancoding.com/sketch -->
    <title>Jay Denton Logo</title>
    <desc>Created with Sketch.</desc>
    <defs>
        <filter x="-50%" y="-50%" width="200%" height="200%" filterUnits="objectBoundingBox" id="filter-1">
            <feOffset dx="8" dy="8" in="SourceAlpha" result="shadowOffsetOuter1"></feOffset>
            <feGaussianBlur stdDeviation="0" in="shadowOffsetOuter1" result="shadowBlurOuter1"></feGaussianBlur>
            <feColorMatrix values="0 0 0 0 0   0 0 0 0 0   0 0 0 0 0  0 0 0 0.42 0" in="shadowBlurOuter1" type="matrix" result="shadowMatrixOuter1"></feColorMatrix>
            <feMerge>
                <feMergeNode in="shadowMatrixOuter1"></feMergeNode>
                <feMergeNode in="SourceGraphic"></feMergeNode>
            </feMerge>
        </filter>
    </defs>
    <g id="Page-1" stroke="none" stroke-width="1" fill="none" fill-rule="evenodd" sketch:type="MSPage">
        <g id="jaysig" sketch:type="MSLayerGroup" fill="#4E5D6C">
            <path d="M2348.989,375.453 C2364.489,373.594 2380.05,372.417 2395.661,372.342 C2402.647,372.309 2409.485,371.682 2416.438,370.86 C2429.27,369.345 2442.343,368.858 2455.26,369.369 C2468.596,369.896 2481.839,369.42 2495.145,369.19 C2521.046,368.743 2546.836,366.624 2572.674,365.329 C2598.245,364.047 2623.847,363.78 2649.425,362.485 C2670.619,361.412 2691.952,360.709 2713.28,360.875 C2727.808,360.988 2742.496,360.009 2757.103,359.405 C2777.719,358.553 2798.376,358.687 2819.017,358.456 C2820.269,358.441 2821.525,358.914 2824.284,359.454 C2815.3,364.492 2807.721,369.271 2803.218,377.479 C2801.972,379.75 2799.318,379.665 2797.029,380.138 C2791.196,381.344 2785.321,382.222 2780.565,386.589 C2778.134,388.821 2774.434,389.235 2771.148,389.475 C2757.801,390.448 2745.032,394.248 2732.037,396.99 C2720.609,399.403 2708.855,399.171 2697.238,399.957 C2689.283,400.496 2681.236,399.641 2673.337,400.026 C2658.129,400.769 2642.774,400.381 2627.749,403.44 C2620.218,404.975 2612.497,404.981 2604.979,405.479 C2589.104,406.529 2573.235,408.603 2557.222,407.833 C2543.935,407.193 2530.765,408.161 2517.507,410.314 C2503.116,412.652 2488.379,413.307 2473.767,413.709 C2458.482,414.131 2443.147,414.023 2427.886,412.421 C2408.714,417.026 2393.922,415.806 2379.377,416.963 C2356.497,418.783 2333.614,420.567 2310.712,422.065 C2284.86,423.756 2259.009,425.331 2233.099,426.214 C2208.538,427.051 2184.017,429.379 2159.517,431.502 C2146.969,432.589 2134.377,433.159 2121.956,436.074 C2112.707,438.245 2105.765,443.641 2099.364,449.636 C2089.637,458.748 2079.321,467.057 2068.658,474.965 C2061.985,479.912 2055.517,485.141 2048.981,490.232 C2022.198,511.101 1993.704,529.355 1965.1,547.538 C1949.63,557.371 1933.361,565.656 1917.098,573.862 C1900.26,582.359 1882.868,589.799 1864.583,595.112 C1854.507,598.041 1845.086,603.065 1834.739,605.668 C1829.782,606.914 1824.982,609.602 1820.695,613.007 C1811.092,620.636 1800.222,626.454 1790.099,633.372 C1781.997,638.908 1772.144,641.585 1761.646,638.963 C1755.235,637.362 1748.452,637.25 1742.049,635.628 C1734.716,633.769 1727.95,635.228 1721.835,638.626 C1704.136,648.466 1687.291,659.652 1671.481,672.37 C1664.036,678.36 1656.407,684.131 1648.722,689.81 C1646.863,691.184 1644.134,691.902 1643.391,694.112 C1639.82,704.737 1630.162,703.968 1622.568,703.635 C1614.622,703.286 1606.234,701.659 1599.121,696.394 C1595.089,693.408 1592.412,690.356 1591.726,685.418 C1590.767,678.52 1589.287,671.85 1586.303,665.37 C1582.644,657.428 1585.204,649.087 1587.348,641.21 C1589.774,632.291 1593.039,623.592 1596.137,614.867 C1597.307,611.572 1597.511,608.631 1595.553,605.349 C1586.655,614.783 1578.544,624.172 1568.473,631.394 C1563.321,635.09 1556.928,637.708 1550.768,636.192 C1540.649,633.703 1529.785,633.256 1521.518,624.815 C1515.558,618.73 1510.805,619.454 1505.931,626.779 C1502.261,632.296 1497.461,633.523 1491.807,634.47 C1478.688,636.665 1467.953,631.711 1458.094,623.755 C1456.095,622.143 1455.131,620.392 1455.599,617.738 C1456.331,613.592 1454.756,609.735 1452.939,606.261 C1448.883,598.499 1450.89,590.753 1452.801,583.201 C1454.169,577.797 1456.533,572.505 1459.271,567.621 C1462.715,561.477 1462.063,555.587 1460.06,549.387 C1455.688,535.837 1465.198,522.999 1479.128,523.706 C1487.215,524.116 1494.99,525.746 1501.28,531.346 C1504.796,534.475 1508.621,534.81 1513.244,534.676 C1527.213,534.272 1540.204,537.534 1550.852,547.394 C1552.819,549.216 1554.389,551.168 1555.729,553.569 C1559.387,560.113 1562.671,560.867 1568.295,555.92 C1575.231,549.816 1581.714,543.18 1588.214,536.598 C1610.643,513.887 1631.11,489.454 1651.159,464.655 C1653.239,462.083 1655.922,460.005 1658.064,457.477 C1661,454.012 1659.984,450.928 1655.362,450.81 C1644.735,450.543 1634.082,450.8 1623.454,451.221 C1609.173,451.785 1594.883,451.805 1580.59,452.546 C1567.788,453.21 1554.758,451.232 1541.958,449.477 C1534.477,448.451 1528.624,450.099 1524.273,455.897 C1512.062,472.175 1497.185,486.016 1482.789,500.156 C1474.355,508.441 1465.076,516.132 1455.938,523.811 C1443.745,534.06 1432.083,545.051 1419.202,554.351 C1399.544,568.543 1381.994,585.335 1361.71,598.801 C1340.713,612.74 1319.887,626.93 1298.496,640.268 C1279.104,652.358 1259.417,664.178 1238.731,673.669 C1223.883,680.482 1207.792,685.032 1192.077,690.118 C1173.221,696.222 1154.161,695.727 1135.138,696.966 C1126.563,697.523 1117.539,696.992 1109.05,693.031 C1104.099,690.721 1098.683,688.796 1092.997,687.979 C1087.711,687.221 1083.69,683.885 1079.438,680.534 C1068.274,671.736 1062.372,659.894 1056.874,647.308 C1048.477,628.081 1042.84,608.236 1038.664,587.677 C1036.625,577.635 1035.793,567.388 1033.848,557.349 C1032.532,550.56 1031.921,542.479 1033.95,534.815 C1035.432,529.223 1035.236,523.07 1035.664,517.218 C1037.304,494.752 1043.591,473.412 1051.25,452.601 C1062.601,421.761 1076.96,392.297 1094.335,364.233 C1105.872,345.598 1118.375,327.563 1129.188,308.481 C1130.316,306.489 1131.893,304.615 1131.73,302.086 C1133.233,301.154 1133.957,299.815 1133.862,298.041 C1135.628,296.244 1135.471,294.09 1135.005,291.879 C1135.948,290.04 1136.412,288.126 1135.914,286.06 C1138.896,280.518 1139.405,274.191 1141.453,268.313 C1146.219,254.631 1152.79,241.732 1157.768,228.17 C1159.384,227.291 1160.139,225.917 1159.91,224.031 C1161.343,222.383 1161.778,221.331 1161.59,220.003 C1164.196,217.136 1165.655,215.008 1166.048,212.236 C1166.542,211.51 1167.036,210.782 1167.531,210.055 C1171.251,206.729 1173.425,202.481 1174.843,197.785 C1181.855,191.323 1185.033,184.275 1188.655,177.535 C1192.1,175.892 1193.451,173.448 1194.052,170.444 C1197.505,167.711 1199.83,164.008 1202.357,160.475 C1204.834,158.937 1206.708,156.911 1207.565,154.06 C1214.671,150.91 1218.372,144.548 1222.322,138.421 C1225.456,136.438 1227.466,133.365 1229.845,130.65 C1235.912,128.699 1239.052,123.695 1242.252,118.754 C1245.277,117.191 1248.202,115.584 1250.059,112.613 C1253.746,111.754 1256.899,110.28 1257.835,106.154 C1268.328,100.713 1274.871,94.333 1281.385,87.914 C1283.788,87.164 1285.982,86.088 1287.503,83.969 C1290.342,83.913 1292.448,82.721 1293.596,80.042 C1297.416,80.342 1299.532,78.172 1300.858,74.89 C1314.44,67.09 1327.216,59.795 1339.946,52.425 C1340.714,51.981 1341.13,50.93 1341.71,50.161 C1347.833,50.446 1352.306,46.445 1356.881,43.437 C1372.859,32.924 1390.442,25.843 1408.563,20.745 C1428.961,15.007 1449.866,10.402 1471.372,11.932 C1489.661,13.233 1507.901,15.231 1523.327,26.707 C1532.106,33.237 1540.736,39.995 1546.665,49.438 C1548.644,52.59 1550.65,55.535 1554.343,56.824 C1555.127,61.309 1557.888,63.959 1561.192,66.212 C1562.967,72.666 1567.319,77.579 1570.906,82.938 C1573.278,89.902 1574.97,95.877 1576.845,101.795 C1578.646,107.484 1580.305,113.254 1582.604,118.746 C1589.934,136.241 1594.18,154.531 1597.199,173.16 C1597.948,177.781 1599.008,182.283 1601.357,186.372 C1602.995,189.223 1605.493,191.222 1608.733,189.719 C1613.461,187.527 1619.12,187.183 1622.817,182.883 C1641.906,175.351 1660.197,168.399 1678.423,161.281 C1695.147,154.75 1711.794,148.019 1728.488,141.412 C1747.315,133.962 1766.774,128.339 1785.631,120.842 C1813.085,109.927 1841.125,100.434 1869.423,91.804 C1872.776,90.781 1876.808,90.591 1878.865,86.886 C1883.215,85.776 1886.881,85.441 1890.363,84.457 C1917.788,76.712 1944.79,67.503 1972.621,61.127 C1977.647,59.975 1983.127,59.431 1987.616,56.28 C1995.935,54.91 2000.623,54.807 2004.993,53.574 C2015.725,50.55 2027.017,50.032 2037.522,46.101 C2043.756,46.498 2046.034,45.708 2048.314,45.408 C2061.751,43.643 2075.177,41.78 2088.62,40.072 C2106.127,37.848 2123.771,38.437 2141.347,37.938 C2161.258,37.374 2181.2,38.115 2200.817,42.191 C2211.233,44.356 2221.323,47.677 2231.452,50.974 C2246.726,55.945 2260.803,62.997 2273.775,72.317 C2291.993,85.405 2304.266,103.573 2315.87,122.26 C2322.22,132.485 2326.472,143.81 2329.825,155.148 C2333.454,167.417 2335.166,180.263 2333.577,193.408 C2332.262,204.296 2330.635,214.659 2324.853,224.428 C2321.026,230.892 2315.503,236.42 2313.362,243.874 C2312.346,244.172 2311.667,244.798 2311.431,245.856 C2305.054,248.231 2303.116,254.856 2298.746,259.183 C2280.965,276.792 2264.432,295.679 2244.899,311.493 C2244.232,312.033 2244.077,313.202 2243.683,314.078 C2240.606,314.063 2238.88,316.17 2236.998,317.994 C2229.032,325.718 2221.554,334.04 2212.971,341.001 C2205.08,347.4 2199.69,356.565 2190.242,361.166 C2189.594,361.481 2189.469,362.872 2189.101,363.763 C2187.27,364.45 2186.033,365.738 2185.291,367.527 C2178.938,369.559 2175.458,375.157 2170.911,379.364 C2168.207,381.866 2169.356,384.416 2173.3,384.322 C2188.14,383.97 2202.985,383.394 2217.569,380.185 C2228.052,380.631 2234.651,381.201 2241.263,381.578 C2245.5,379.955 2247.483,379.932 2249.468,379.908 C2262.287,379.137 2275.108,378.396 2287.921,377.544 C2293.581,376.644 2295.554,376.687 2297.435,375.704 C2314.638,379.163 2331.809,377.514 2348.989,375.453 Z M2246.584,239.685 C2249.847,238.003 2251.813,235.111 2253.649,232.101 C2261.23,227.775 2266.655,221.488 2270.4,213.676 C2274.246,210.326 2278.62,207.498 2281.111,202.813 C2284.022,202.264 2284.79,200.313 2284.481,197.66 C2295.036,187.483 2298.665,176.197 2295.023,163.044 C2294.067,159.592 2293.384,155.948 2292.117,152.723 C2288.063,142.404 2284.167,131.733 2273.683,125.71 C2273.664,124.977 2273.324,124.453 2272.664,124.136 C2272.957,120.496 2270.126,118.932 2267.812,117.198 C2263.534,113.996 2259.55,110.488 2256.026,106.491 C2252.226,102.179 2247.538,99.331 2242.514,96.551 C2230.653,89.987 2217.784,87.211 2204.741,84.54 C2193.299,82.197 2181.625,82.326 2170.139,80.5 C2156.637,78.354 2142.98,79.076 2129.372,79.263 C2127.391,79.29 2125.352,79.262 2123.798,80.854 C2121.051,80.43 2118.325,80.307 2115.692,81.447 C2112.521,79.742 2109.171,80.617 2105.899,80.863 C2096.616,81.563 2087.464,83.562 2078.258,84.472 C2051.415,87.122 2024.855,91.398 1998.713,97.797 C1986.903,100.688 1974.826,103.276 1963.725,108.688 C1962.269,108.459 1960.94,108.789 1959.726,109.609 C1955.976,108.174 1952.53,109.957 1949.042,110.748 C1926.655,115.821 1904.718,122.472 1883.047,129.999 C1854.468,139.926 1825.804,149.626 1797.41,160.059 C1767.777,170.946 1738.366,182.443 1708.966,193.949 C1688.554,201.938 1668.313,210.361 1648.028,218.671 C1645.323,219.779 1642.269,220.585 1640.855,223.646 C1629.453,225.59 1621.04,231.237 1611.999,235.348 C1607.137,237.558 1605.199,240.874 1605.315,246.321 C1605.577,258.675 1602.379,270.68 1600.903,282.861 C1598.248,304.802 1588.464,324.842 1584.598,346.428 C1584.368,347.711 1583.548,348.877 1583.16,350.146 C1578.188,366.44 1570.276,381.519 1563.73,397.162 C1561.176,403.267 1562.054,404.883 1568.774,405.211 C1575.058,405.518 1581.374,405.139 1587.677,405.06 C1589.656,405.651 1591.65,405.741 1593.663,405.24 C1594.89,406.541 1596.105,406.568 1597.31,405.21 C1598.752,405.271 1600.194,405.332 1601.636,405.394 C1603.182,405.94 1604.722,406.941 1606.273,406.959 C1617.23,407.083 1628.139,407.789 1639.153,406.446 C1652.346,404.838 1665.731,403.537 1679.013,404.926 C1691.7,406.253 1700.163,401.692 1704.689,389.8 C1704.993,389.231 1705.296,388.664 1705.6,388.096 C1712.897,382.323 1716.435,374.338 1718.808,365.664 C1726.442,361.564 1729.121,354.776 1731.147,347.582 C1731.28,347.111 1730.617,346.416 1730.324,345.825 C1731.743,344.863 1732.972,343.735 1733.571,342.066 C1737.721,340.15 1739.947,336.459 1742.241,332.792 C1749.624,320.991 1756.116,308.577 1763.642,296.979 C1774.479,280.273 1784.616,263.074 1796.283,246.888 C1800.692,240.771 1806.117,236.041 1813.648,237.571 C1824.08,239.691 1834.563,242.84 1836.877,255.882 C1837.146,257.398 1838.437,258.771 1839.374,260.127 C1845.933,269.616 1845.11,279.889 1841.031,289.602 C1835.667,302.379 1831.215,315.638 1823.394,327.312 C1818.43,334.722 1814.699,343.172 1808.786,349.674 C1802.07,357.06 1797.434,365.979 1790.227,372.879 C1788.753,374.29 1787.845,376.062 1788.058,378.222 C1782.476,381.749 1779.026,386.486 1776.845,392.182 C1774.558,398.151 1775.512,399.745 1781.997,400.723 C1783.942,401.017 1785.971,400.859 1787.956,400.78 C1801.911,400.23 1815.862,399.567 1829.821,399.131 C1833.137,399.027 1836.503,399.789 1839.31,397.293 C1844.095,398.083 1848.88,397.856 1853.665,397.287 C1855.577,398.975 1857.454,399.299 1859.269,397.143 C1860.613,397.017 1861.959,396.891 1863.305,396.764 C1876.091,397.208 1888.87,398.638 1901.672,397.042 C1905.582,397.997 1909.453,397.935 1913.274,396.596 C1927.355,398.102 1941.396,398.102 1955.363,395.453 C1960.14,395.961 1964.911,395.973 1969.674,395.28 C1971.306,396.726 1973.42,396.981 1975.258,396.518 C1983.671,394.397 1992.253,395.588 2000.728,394.898 C2003.624,394.663 2006.681,395.102 2009.311,393.33 C2010.757,393.346 2012.204,393.361 2013.65,393.377 C2017.347,396.144 2021.472,394.554 2025.14,393.863 C2031.829,392.606 2038.988,395.097 2045.289,391.242 C2051.309,391.405 2057.353,392.144 2063.297,390.495 C2070.747,392.281 2078.116,392.314 2085.354,389.481 C2086.667,389.117 2087.979,388.754 2089.292,388.391 C2092.105,389.584 2094.56,388.772 2096.417,386.634 C2101.349,380.955 2107.518,376.431 2111.745,370.107 C2112.265,369.725 2112.784,369.342 2113.304,368.96 C2119.308,368.748 2120.893,364.086 2122.69,359.639 C2128.8,356.453 2144.372,341.698 2149.543,334.044 C2150.659,333.821 2151.39,333.203 2151.597,332.047 C2153.921,331.751 2155.25,330.385 2155.778,328.157 C2157.393,327.847 2158.552,326.92 2159.354,325.511 C2163.533,324.637 2165.907,321.654 2167.882,318.206 C2170.524,317.072 2171.745,314.613 2173.265,312.433 C2180.45,311.096 2183.467,304.977 2187.499,300.023 C2194.916,295.378 2199.933,288.345 2205.537,281.896 C2208.738,281.044 2210.21,278.773 2210.652,275.658 C2219.899,272.559 2222.442,264.055 2227.626,258.102 C2228.96,258.132 2229.7,257.506 2229.765,256.141 C2234.408,252.254 2239.749,249.029 2243.429,243.947 C2245.988,243.573 2246.764,241.98 2246.584,239.685 Z M1239.864,186.421 C1235.526,191.422 1236.338,193.696 1242.655,195.282 C1246.199,196.172 1249.391,196.747 1252.181,199.838 C1257.193,205.39 1258.936,213.641 1266.676,217.009 C1268.391,217.755 1268.217,220.576 1268.009,222.568 C1267.146,230.825 1265.961,238.805 1258.728,244.578 C1251.22,250.571 1244.05,257.006 1236.946,263.484 C1232.3,267.723 1229.156,273.269 1224.662,277.801 C1216.505,286.022 1208.338,294.273 1200.669,303.023 C1193.31,311.419 1187.594,321.111 1178.858,328.519 C1173.442,333.111 1169.057,339.933 1168.141,347.229 C1166.371,361.323 1169.215,374.845 1176.467,387.257 C1177.044,392.903 1180.019,396.791 1181.08,401.342 C1182.423,407.1 1180.182,412.584 1174.064,415.353 C1169.313,417.505 1168.054,412.918 1165.468,410.634 C1160.999,406.687 1159.859,399.962 1153.921,397.291 C1149.111,395.129 1145.048,391.92 1141.977,386.832 C1138.308,391.33 1135.091,395.084 1132.088,399.001 C1127.378,405.143 1125.152,412.608 1121.531,419.343 C1108.767,443.084 1098.151,467.655 1090.275,493.563 C1082.06,520.586 1078.625,547.981 1079.126,576.042 C1079.192,579.712 1079.624,583.292 1080.917,586.816 C1082.734,591.772 1085.773,596.99 1085.406,601.879 C1084.777,610.244 1087.085,617.546 1089.43,625.197 C1094.132,640.543 1105.843,647.126 1120.195,649.515 C1137.138,652.334 1154.097,650.185 1170.367,645.226 C1197.129,637.07 1223.083,626.686 1247.455,612.793 C1262.188,604.393 1276.035,594.48 1291.339,587.016 C1294.588,585.43 1297.834,583.391 1300.35,580.84 C1305.578,575.537 1311.843,571.891 1318.175,568.252 C1320.188,567.095 1322.655,566.306 1324.087,564.639 C1330.749,556.879 1339.247,551.87 1348.26,547.479 C1350.329,546.472 1352.375,545.19 1354.044,543.622 C1367.389,531.082 1381.59,519.621 1396.932,509.624 C1400.578,507.248 1403.669,504.454 1406.767,501.409 C1416.462,491.878 1426.096,482.321 1436.693,473.662 C1448.486,464.026 1460.007,453.882 1470.217,442.461 C1474.578,437.581 1474.422,436.717 1468.534,433.93 C1461.013,430.369 1453.555,426.707 1446.83,421.789 C1436.524,414.252 1426.748,405.783 1423.291,393.081 C1420.449,382.637 1417.746,372.025 1418.702,360.732 C1419.515,351.144 1420.37,341.572 1421.522,332.021 C1422,330.144 1422.477,328.266 1422.955,326.388 C1424.908,325.224 1424.929,323.065 1425.636,321.245 C1430.119,309.718 1436.399,299.354 1443.869,289.402 C1454.467,275.285 1468.4,264.697 1482.354,255.083 C1499.388,243.344 1516.25,230.664 1536.036,223.17 C1544.389,220.008 1552.396,215.903 1560.461,212.023 C1568.999,207.915 1574.078,201.674 1572.394,191.494 C1569.149,171.882 1570.726,151.687 1564.562,132.379 C1559.729,117.238 1557.198,101.242 1546.256,88.691 C1545.612,87.953 1545.177,87.012 1544.745,86.117 C1535.821,67.622 1520.587,57.804 1500.935,53.633 C1477.021,48.558 1454.015,54.991 1431.054,59.493 C1418.492,61.956 1406.302,67.218 1394.507,72.478 C1375.638,80.892 1358.697,92.805 1341.272,103.813 C1332.585,109.302 1324.271,115.297 1315.813,121.102 C1306.866,127.244 1297.337,132.54 1289.11,139.719 C1287.204,140.435 1285.991,141.809 1285.332,143.705 C1274.812,149.513 1266.811,158.255 1258.542,166.685 C1250.639,172.074 1245.7,179.693 1239.864,186.421 Z M2028.977,439.166 C2016.646,440.609 2004.768,439.339 1992.86,439.399 C1962.018,439.556 1931.321,443.273 1900.396,442.132 C1875.152,441.2 1849.836,442.453 1824.56,442.101 C1813.761,441.95 1803.571,445.735 1792.897,445.637 C1776.938,445.488 1761.102,447.522 1745.187,448.144 C1738.619,448.4 1732.901,450.611 1728.687,456.082 C1714.122,474.985 1700.237,494.366 1687.218,514.368 C1680.894,524.086 1674.722,533.786 1669.965,544.502 C1665.79,553.904 1662.423,563.667 1657.867,572.842 C1651.924,584.815 1647.717,597.333 1644.144,610.095 C1642.857,614.694 1640.763,619.333 1641.367,625.012 C1646.288,624.146 1649.814,621.85 1653.236,619.33 C1667.733,608.654 1683.968,600.986 1699.745,592.533 C1714.036,584.877 1729.262,584.711 1744.384,588.574 C1752.621,590.68 1759.133,589.628 1765.729,584.545 C1778.911,574.39 1792.641,565.012 1809.101,560.91 C1818.12,558.662 1827.216,556.695 1835.885,553.314 C1851.901,547.065 1868.577,542.319 1883.626,533.836 C1897.126,526.225 1912.092,522.011 1925.128,512.906 C1941.661,501.359 1960.196,492.805 1976.839,481.09 C1992.858,469.815 2009.527,459.465 2024.671,446.959 C2026.676,445.303 2029.101,443.884 2028.977,439.166 L2028.977,439.166 Z M1501.157,397.427 C1506.17,398.736 1509.817,395.604 1513.482,390.257 C1525.362,372.921 1532.696,353.253 1542.828,335.05 C1547.595,326.484 1547.924,316.318 1552.987,308.042 C1556.03,303.068 1557.979,297.805 1558.907,292.287 C1560.076,285.345 1562.296,278.748 1564.089,272.004 C1564.977,268.664 1568.468,264.653 1564.848,261.894 C1561.361,259.239 1557.166,262.152 1553.819,264.033 C1548.323,267.123 1543.393,271.268 1537.788,274.107 C1517.723,284.274 1499.604,297.117 1483.503,312.765 C1468.179,327.657 1459.175,345.769 1456.181,367.006 C1454.992,375.428 1458.088,381.485 1464.97,385.489 C1475.666,391.712 1487.003,396.417 1501.157,397.427 L1501.157,397.427 Z" id="Fill-1" sketch:type="MSShapeGroup"></path>
            <path d="M493.175,67.666 C485.964,91.674 476.097,114.748 464.226,136.587 C456.57,150.672 450.402,165.178 443.763,179.621 C438.834,190.341 431.895,200.161 425.597,210.223 C413.822,229.03 402.519,248.09 392.62,267.971 C385.828,281.61 379.043,295.293 369.898,307.572 C363.891,315.641 359.015,324.409 355.224,333.585 C350.391,345.279 344.053,356.361 337.984,367.159 C330.58,380.336 323.335,393.803 315.094,406.582 C311.646,411.927 308.605,417.508 306.599,423.51 C302.854,434.703 296.024,444.277 290.074,454.183 C285.621,461.596 281.993,469.383 278.419,477.075 C272.957,488.832 267.059,500.369 261.227,511.917 C255.53,523.192 249.498,534.272 244.43,545.876 C238.346,559.805 231.624,573.455 226.833,587.924 C225.48,592.011 223.041,595.566 221.168,599.473 C226.359,591.591 231.339,583.602 237.868,576.757 C238.529,576.063 239.211,575.102 239.31,574.201 C240.727,561.304 250.078,552.843 256.762,542.91 C258.885,539.756 261.993,538.205 265.873,537.429 C280.068,534.59 292.578,528.238 303.216,518.341 C304.917,516.758 306.448,514.979 308.233,513.502 C314.988,507.906 322.111,503.034 331.545,504.371 C346.444,506.481 358.834,500.087 372.196,494.634 C397.322,484.38 419.015,468.693 441.509,454.382 C459.91,442.675 478.738,431.638 496.909,419.563 C504.135,414.762 512.866,413.614 520.835,410.636 C538.828,403.91 557.171,398.081 575.517,392.351 C589.777,387.896 604.283,389.016 618.7,392.058 C625.747,397.816 629.772,403.805 633.829,409.885 C638.451,416.813 638.032,422.853 635.169,430.344 C630.134,443.52 621.763,453.984 611.664,463.289 C604.557,469.838 598.043,476.864 591.823,484.245 C588.005,488.775 584.454,493.738 578.979,496.621 C577.489,497.404 576.13,498.353 575.569,500.073 C573.605,506.099 569.839,510.457 563.896,512.883 C561.514,513.855 561.086,516.49 559.663,518.287 C556.581,522.18 554.061,526.554 549.216,528.764 C546.406,530.046 544.339,532.549 543.145,535.225 C538.528,545.579 530.243,552.693 522.136,560.034 C519.679,562.26 517.237,564.589 515.228,567.207 C506.169,579.019 497.833,591.361 488.901,603.278 C484.087,609.703 481.369,617.745 478.309,625.39 C472.415,640.111 466.837,655.034 457.299,668.018 C454.976,671.182 453.492,674.97 451.675,678.497 C444.107,693.181 435.237,707.093 428.624,722.407 C424.269,732.492 417.924,742.005 413.127,752.107 C410.452,757.738 408.508,763.717 405.798,770.654 C411.423,770.602 414.731,768.068 418.069,765.631 C438.448,750.753 460.448,738.197 480.683,723.241 C495.107,712.58 511.276,704.832 525.315,693.564 C534.269,686.378 545.092,681.314 555.347,675.937 C569.85,668.332 582.367,657.918 596.214,649.457 C603.552,644.973 610.934,640.675 618.739,636.888 C626.817,632.968 634.962,628.176 641.485,621.65 C645.402,617.732 650.5,616.103 654.959,613.318 C666.791,605.926 678.677,598.423 691.253,592.466 C709.526,583.809 727.232,573.947 744.27,563.404 C756.054,556.113 769.127,551.626 780.5,543.363 C795.221,532.669 812.03,524.85 828.981,518.019 C839.522,513.772 849.745,508.945 859.391,503.173 C869.298,497.243 880.277,493.626 889.96,487.022 C896.837,482.33 905.893,480.792 913.723,477.09 C930.192,469.302 946.894,462.008 963.5,454.508 C964.71,453.961 965.872,453.29 967.116,452.839 C968.391,452.377 969.711,452.248 970.677,453.561 C971.563,454.766 971.403,456.065 970.886,457.315 C969.771,460.006 967,461.943 967.21,465.227 C971.169,466.757 974.346,464.873 975.826,468.188 C977.438,471.797 975.449,474.603 972.962,477.027 C968.923,480.966 964.931,485.028 960.778,488.756 C955.021,493.926 950.842,500.243 945.72,505.805 C939.351,512.718 930.663,517.088 922.461,521.026 C909.644,527.18 897.106,533.94 884.688,540.684 C859.041,554.613 832.955,567.691 807.319,581.609 C786.327,593.006 765.89,605.428 745.294,617.543 C741.561,619.738 738.087,622.262 733.785,623.361 C731.881,623.849 729.859,624.63 728.368,625.857 C715.978,636.047 700.935,641.768 687.557,650.303 C664.091,665.273 640.076,679.405 616.897,694.801 C598.968,706.71 579.836,716.686 562.323,729.137 C551.239,737.018 540.324,745.207 528.448,751.725 C519.697,756.527 512.865,763.961 503.765,768.11 C501.732,769.037 499.551,770.621 498.483,772.497 C494.79,778.992 488.75,782.043 482.435,785.253 C472.075,790.521 462.18,796.667 454.604,805.761 C453.238,807.401 451.753,808.366 449.87,809.144 C445.515,810.939 441.571,813.314 438.752,817.305 C437.828,818.611 436.519,819.974 435.084,820.535 C424.629,824.627 417.168,833.113 407.858,838.839 C391.042,849.182 367.795,850.122 354.069,837.555 C350.918,834.669 347.308,831.92 349.154,826.604 C349.519,825.554 349.137,823.773 348.415,822.885 C338.18,810.279 340.419,796.878 345.552,783.175 C348.096,776.383 350.185,769.418 352.77,762.643 C360.593,742.146 370.89,722.75 380.141,702.908 C384.117,694.381 389.646,686.356 394.424,678.071 C399.682,668.954 405.588,660.213 411.096,651.236 C424.986,628.594 438.602,605.819 455.362,585.034 C463.018,575.541 470.034,565.422 477.04,555.398 C489.99,536.871 504.985,519.883 517.541,501.109 C525.329,489.464 534.221,478.805 543.38,468.281 C545.946,465.333 547.604,461.595 549.672,458.211 C550.009,456.828 552.061,456.338 551.277,452.89 C550.552,455.644 550.19,457.016 549.829,458.386 C545.61,458.211 541.856,458.101 538.319,461.833 C534.443,465.924 528.098,467.016 523.029,468.44 C507.955,472.674 495.756,481.548 483.254,490.033 C479.399,492.65 474.355,493.904 471.513,496.965 C464.765,504.229 454.651,505.418 447.567,512.156 C442.136,517.322 436.034,522.292 429.807,526.369 C420.23,532.638 411.301,539.915 398.89,542.193 C390.367,543.759 380.723,545.725 373.283,552.271 C369.543,555.561 363.73,553.599 358.972,554.83 C357.474,555.217 355.417,554.037 354.158,554.663 C335.83,563.79 317.16,572.213 304.433,589.663 C299.469,596.469 291.601,600.951 286.431,607.965 C282.125,613.806 276.455,618.624 273.948,625.792 C273.33,627.558 271.755,629.245 270.192,630.381 C259.591,638.088 255.038,650.346 247.932,660.564 C240.208,671.669 232.333,682.783 225.767,694.741 C221.141,703.167 216.273,711.541 211.864,720.033 C203.454,736.23 193.412,751.564 186.501,768.593 C183.801,775.244 179.073,781.132 174.129,786.522 C168.339,792.834 156.477,794.693 148.802,790.751 C145.548,789.078 142.279,787.434 139.058,785.7 C131.167,781.451 120.66,761.481 122.786,753.743 C125.155,745.117 126.786,736.369 128.61,727.637 C132.141,710.732 134.972,693.637 140.046,677.111 C145.58,659.091 150.403,640.863 158.457,623.613 C163.348,613.139 166.727,601.874 170.636,590.938 C179.391,566.435 191.291,543.445 202.409,520.054 C207.12,510.144 210.761,499.611 217.086,490.632 C232.84,468.266 240.962,442.053 254.178,418.307 C271.574,387.051 287.894,355.056 304.202,323.132 C310.38,311.038 317.561,299.462 324.107,287.553 C336.252,265.456 348.05,243.166 360.422,221.198 C366.757,209.952 374.394,199.441 380.763,188.213 C387.138,176.973 392.671,165.254 398.558,153.738 C399.312,152.262 400.171,150.798 400.634,149.226 C401.205,147.29 401.455,144.971 399.65,143.688 C397.405,142.089 396.071,144.268 394.827,145.716 C378.558,164.655 360.509,181.893 343.198,199.836 C336.27,207.018 328.138,212.918 321.093,219.835 C311.136,229.611 300.333,238.472 289.7,247.267 C277.721,257.178 266.576,268.16 253.828,277.132 C250.802,279.261 248.004,281.549 245.468,284.195 C235.335,294.767 223.727,303.516 211.989,312.209 C201.337,320.1 191.451,329.019 181.162,337.406 C170.611,346.006 160.811,355.553 148.933,362.482 C144.602,365.01 141.606,369.273 137.79,372.442 C111.469,394.299 87.251,418.792 58.955,438.099 C48.008,445.568 34.743,450.312 20.338,444.921 C16.391,443.443 14.383,441.293 12.727,437.886 C10.282,432.858 8.617,427.26 3.062,424.348 C2.056,423.82 1.054,422.269 0.987,421.135 C0.62,414.886 -0.278,408.505 0.57,402.387 C1.695,394.275 7.952,390.217 15.457,388.246 C19.634,387.15 23.887,386.058 28.167,385.705 C36.887,384.986 43.988,380.857 50.4,375.525 C60.615,367.031 71.374,359.183 81.546,350.73 C105.214,331.065 128.638,311.051 153.815,293.41 C170.938,281.412 187.227,268.349 203.974,255.908 C216.147,246.867 228.364,237.629 239.504,227.096 C250.804,216.409 263.312,207.009 274.781,196.489 C288.475,183.929 301.638,170.788 315.014,157.88 C324.586,148.643 334.61,139.846 344.045,130.521 C354.586,120.102 365,109.471 374.286,97.729 C382.858,86.893 392.823,77.101 402.656,67.332 C415.418,54.653 427.172,41.072 439.188,27.726 C442.317,24.251 443.687,19.672 445.294,15.287 C450.588,0.846 466.253,-3.912 479.556,3.93 C484.89,7.073 489.262,11.988 495.644,13.331 C495.697,16.811 498.092,18.422 499.673,20.479 C504.295,26.499 505.531,32.763 502.15,39.996 C500.679,43.143 497.955,46.12 498.824,50.122 C497.679,52.669 497.611,55.316 498.086,58.016 C495.155,60.567 494.201,64.249 493.175,67.666 Z" id="Fill-2" sketch:type="MSShapeGroup"></path>
        </g>
        <path d="M835.453579,683.945981 C834.224276,681.088778 829.24355,678.931828 826.140288,674.627689 C825.883589,674.271655 822.565185,675.199158 820.520221,675.38494 C818.475256,675.570722 817.526766,675.68169 815.259611,674.504658 C812.992455,673.327627 812.212079,672.062863 811.451242,670.640212 C810.690404,669.21756 810.629032,667.508606 810.817518,666.198615 C808.147987,664.037072 805.024396,660.592152 796.607335,651.000462 C788.190275,641.408773 785.036676,635.815171 782.313005,633.532134 C779.589335,631.249098 778.025486,630.425071 776.636674,629.239129 C775.247862,628.053188 771.239889,622.887077 770.393927,621.578852 C769.547966,620.270627 768.024115,619.002578 767.311599,617.698989 C766.599084,616.395399 766.51861,615.816748 765.84537,614.700739 C765.17213,613.58473 763.630157,612.417992 762.545643,611.161575 C760.007684,608.221333 759.552831,607.477029 758.247585,603.522196 C756.94234,599.567363 757.132576,595.043696 757.132576,595.043696 C757.132576,595.043696 755.885425,593.664992 755.314864,591.248177 C754.744303,588.831361 754.975253,587.100274 754.975253,587.100274 C754.975253,587.100274 753.688879,585.485195 752.957784,582.906265 C752.226689,580.327336 752.128606,579.022001 752.165589,577.189218 C752.202572,575.356435 752.351635,572.89532 752.957784,571.273438 C753.563933,569.651555 754.975253,567.118964 755.562826,566.836001 L755.562826,558.542848 C755.562826,558.542848 753.294843,556.572426 752.165589,555.375611 C751.036335,554.178796 749.300766,552.090948 749.031818,550.014033 C748.762871,547.937117 750.263841,546.968483 751.088824,545.499422 C751.913808,544.03036 752.355291,541.764629 752.957784,539.985428 C753.560277,538.206227 754.054482,537.649376 754.161455,536.425747 C754.268428,535.202118 753.545345,534.012086 753.18584,526.841832 C752.826335,519.671578 752.597575,518.299933 752.957784,512.418784 C753.317993,506.537635 752.851521,508.956936 754.433839,500.546655 C756.016156,492.136373 758.289596,484.079312 758.289596,484.079312 C758.289596,484.079312 761.323749,472.847586 763.110782,467.049123 C764.897815,461.250659 765.938024,459.126418 767.019243,455.753844 C767.216931,455.137209 767.142608,449.541106 767.637133,447.95716 C768.131657,446.373214 771.18685,439.446471 772.170076,437.23663 C773.153302,435.026789 772.427305,436.154514 774.953695,431.51288 C777.480086,426.871247 778.151133,425.732393 779.712323,424.199521 C780.128469,418.909157 781.132264,413.201977 782.393025,408.470712 C783.653787,403.739446 783.973894,404.972967 786.146449,400.054141 C788.319004,395.135316 788.779181,394.330704 790.225201,389.987679 C791.671222,385.644653 792.142232,378.840552 792.673174,373.638219 C792.786227,372.530494 792.869505,372.156387 793.660297,371.032001 C794.45109,369.907616 795.16955,369.72656 795.600775,369.475619 C794.184126,365.706282 790.334662,347.448732 789.324231,342.933089 C788.313799,338.417446 787.981793,336.746839 787.600306,333.721323 C787.21882,330.695807 787.069453,327.964466 787.069453,327.699274 C785.897549,326.470471 785.267859,325.650689 784.909382,324.950217 C784.728937,322.025027 785.403766,321.744351 785.403766,321.39479 C785.403766,321.04523 784.283559,320.68003 784.22814,319.902645 C784.172721,319.12526 785.093155,318.334745 785.147703,317.802907 C785.585731,313.532218 785.503696,300.555031 785.403766,294.655004 C785.383432,293.454445 785.447185,289.704559 785.193214,287.915554 C784.939244,286.126549 783.804813,285.271121 783.369766,283.845918 C782.934719,282.420714 783.369766,281.076325 783.369766,277.849713 C783.369766,274.623102 783.567576,273.483344 783.369766,271.744595 C783.171956,270.005846 782.654205,269.650818 782.313006,268.269249 C781.971806,266.88768 781.84139,266.448875 781.80238,265.398015 C781.76337,264.347154 781.901829,259.698085 781.606675,257.766751 C781.31152,255.835418 780.866542,256.50277 780.128468,254.44482 C779.390395,252.38687 779.464201,249.794951 779.411292,246.208294 C779.358383,242.621637 779.472321,242.005087 779.900912,239.019025 C780.329504,236.032963 780.78257,237.718675 781.268749,233.26711 C781.754928,228.815546 781.401012,227.872163 781.530313,224.099855 C781.659614,220.327546 781.530314,217.647079 781.84139,216.5605 C782.152465,215.473921 784.834184,209.986354 788.565544,202.939649 C792.296904,195.892945 792.673174,194.241305 796.298946,189.257283 C799.924719,184.273262 803.214028,180.697237 808.944557,174.917256 C814.675087,169.137274 813.82255,169.892021 820.813977,164.5307 C827.805404,159.16938 830.557826,157.594555 835.083488,154.872825 C839.609149,152.151094 843.844588,150.800707 844.745782,150.638435 C847.832736,150.082586 850.90031,148.549432 852.52928,148.042644 C854.158249,147.535856 854.792412,147.49553 855.672463,146.781561 C856.552514,146.067592 856.702559,145.565161 857.064399,143.341778 C857.426238,141.118396 858.249185,134.203924 858.249185,133.180558 C858.249185,132.157192 857.064387,132.387296 857.064395,130.876921 C857.064422,125.561179 857.99852,121.155276 858.249187,119.690169 C858.499853,118.225063 859.182487,118.364765 859.394969,117.25507 C860.137279,113.378318 859.213154,112.194116 859.950591,109.106288 C860.688029,106.01846 861.950059,106.574175 862.234626,103.882551 C862.519193,101.190927 861.032943,99.5829586 861.267021,97.8141762 C861.73153,94.3041543 862.825221,93.1299926 864.012104,91.3131883 C867.268868,86.3279452 867.387991,86.4400107 871.077843,82.2324544 C874.767694,78.0248981 876.658901,76.2568159 878.737227,74.5220576 C880.815553,72.7872993 881.156668,72.9642772 883.17932,72.1314695 C885.201971,71.2986617 886.319618,71.4060386 887.299333,70.9966903 C889.199174,70.2028918 890.564897,68.7446352 891.947977,68.2940254 C893.331057,67.8434157 896.285739,67.4972249 900.220512,67.2602711 C904.155285,67.0233173 907.623937,67.0717584 908.100951,67.3212861 C908.822651,67.6988109 908.737068,68.0858305 909.60282,68.3440377 C910.468572,68.602245 914.352721,68.4301938 917.73082,68.7446363 C921.108918,69.0590788 921.614328,69.5347021 924.474979,69.7283783 C927.33563,69.9220545 928.191792,69.6586923 929.422778,69.2517459 C930.653764,68.8447994 931.539709,67.9799976 932.362919,67.1207368 C933.18613,66.261476 936.338089,63.645849 941.98152,59.8149445 C947.624952,55.98404 966.794588,42.5034028 969.108459,40.8242676 C969.615642,40.4562141 971.534299,39.1066035 974.334745,37.9780675 C977.135191,36.8495314 977.149544,37.1274658 980.036982,36.64907 C982.92442,36.1706741 983.305875,36.4091421 985.844576,36.0710983 C988.383277,35.7330545 990.15591,35.6102249 990.912823,35.2008842 C991.669736,34.7915436 990.719012,34.2033514 991.87506,32.809796 C993.031108,31.4162406 993.216342,31.5214499 994.566722,30.7963007 C995.917102,30.0711515 996.111072,30.1766265 997.36341,29.862571 C998.615748,29.5485154 999.057834,29.9319845 999.887531,29.4619724 C1000.71723,28.9919604 1000.19458,28.2838885 1001.58596,27.4594799 C1002.97733,26.6350713 1005.89263,27.2616615 1006.85024,26.8813376 C1007.80786,26.5010136 1008.02324,25.6153619 1008.67902,25.3635087 C1009.33479,25.1116555 1012.0364,24.9706301 1012.65958,25.0760214 C1013.28275,25.1814127 1013.88427,25.9839983 1014.26703,26.3870152 C1014.64978,26.7900321 1041.06027,18.8933518 1042.80309,18.3582408 C1043.3926,18.1772384 1044.62289,17.9005143 1046.0944,18.0361616 C1047.56591,18.1718089 1048.81646,18.6751977 1049.01512,18.9308817 C1052.9832,24.037995 1055.33266,26.3752125 1057.01208,29.5925045 C1058.6915,32.8097966 1062.82352,40.4246689 1065.35864,46.3506272 C1067.89375,52.2765854 1072.85559,65.0270332 1077.8107,78.9141381 C1082.76581,92.8012429 1083.26318,94.9365903 1087.10999,107.310624 C1090.95679,119.684657 1092.80979,126.463392 1094.43429,132.387293 C1094.58528,132.937894 1095.38109,134.5617 1095.81313,136.390278 C1096.24517,138.218856 1096.30225,140.293238 1096.30225,140.293238 C1096.30225,140.293238 1097.26615,140.143311 1098.72931,140.580264 C1100.19247,141.017217 1100.37598,141.390587 1101.5047,142.189267 C1102.63342,142.987948 1104.11763,144.963846 1104.11763,144.963846 C1104.11763,144.963846 1107.40272,144.963414 1110.37521,145.268221 C1113.34771,145.573027 1114.51942,145.714134 1116.92132,146.343226 C1119.32323,146.972318 1119.89532,147.403305 1121.67299,148.142669 C1123.45066,148.882033 1125.20386,149.788074 1125.20386,149.788074 C1125.20386,149.788074 1127.46842,149.19793 1129.63545,149.793575 C1131.80248,150.38922 1131.8893,150.727885 1133.29835,151.628026 C1134.7074,152.528168 1136.48457,153.755428 1137.35785,154.881327 C1139.92609,158.192479 1139.10634,157.80055 1142.06251,162.574719 C1145.01867,167.348889 1146.47285,169.465852 1148.00297,172.073056 C1149.53308,174.68026 1149.56167,174.722379 1150.87668,177.593414 C1152.08439,180.2302 1154.00178,186.323237 1154.88966,190.327547 C1155.77755,194.331856 1156.56642,195.113832 1157.33026,197.927416 C1159.15372,204.644003 1160.41882,208.310497 1161.07568,211.288203 C1161.73255,214.26591 1162.69128,218.077711 1163.07718,222.04585 C1163.46308,226.013989 1164.32425,234.193341 1164.68357,244.317829 C1165.04289,254.442317 1164.35656,250.34574 1164.58905,264.645329 C1164.82153,278.944919 1164.27798,281.507225 1165.47877,293.228361 C1165.96637,297.987981 1165.81653,299.656769 1166.10142,302.835225 C1166.38631,306.01368 1167.93546,313.125459 1168.59822,316.519001 C1169.26098,319.912544 1169.66004,320.715053 1170.0664,323.137219 C1170.47276,325.559385 1170.8791,332.787362 1170.99512,333.906868 C1172.26959,337.189656 1172.86259,337.267611 1173.53625,337.759816 C1175.751,339.378006 1175.99893,339.567064 1177.75079,341.746297 C1179.50265,343.92553 1178.59349,343.318253 1180.89806,346.917569 C1183.20264,350.516885 1184.74265,352.644758 1185.58271,353.978306 C1186.42278,355.311855 1186.53111,355.754202 1187.07285,357.451748 C1187.61459,359.149293 1187.53483,359.314492 1187.72851,361.433421 C1187.9222,363.552351 1187.94978,364.668147 1187.76675,365.043028 C1187.58372,365.417909 1186.47005,366.89564 1186.69399,367.768199 C1186.91793,368.640757 1187.32984,368.814316 1187.72851,369.657468 C1188.79761,373.850619 1188.48062,374.931241 1188.25804,376.226859 C1188.03545,377.522478 1187.6711,377.644021 1187.07285,378.446531 C1186.4746,379.249041 1186.01594,379.075566 1185.69824,379.660624 C1186.0155,382.63363 1186.38226,382.300204 1186.67147,382.976291 C1186.96068,383.652379 1187.02325,385.004404 1186.7345,386.4718 C1186.44575,387.939195 1186.07726,388.287013 1185.48369,389.012425 C1184.89012,389.737837 1184.01618,391.29806 1181.4662,392.112187 C1180.07069,392.557731 1178.81426,394.01851 1178.36315,395.111157 C1177.91205,396.203804 1177.32268,397.477987 1178.16789,399.858093 C1179.01309,402.238199 1178.71757,401.57224 1179.83035,402.472472 C1180.94312,403.372704 1180.90257,405.128905 1180.90256,406.057618 C1180.90255,406.986331 1180.53548,409.84957 1179.35168,411.028341 C1178.16788,412.207112 1177.77828,413.509965 1175.65727,414.127603 C1173.53627,414.745241 1168.0359,414.288143 1168.0359,414.288143 C1168.0359,414.288143 1162.72832,398.829976 1174.49449,439.587367 C1186.26065,480.344758 1197.06805,515.150942 1198.71394,520.555285 C1200.35983,525.959629 1209.10299,554.691668 1210.95446,561.090758 C1212.80592,567.489847 1213.29757,568.364322 1213.86817,569.702876 C1214.43878,571.04143 1214.7869,570.758305 1215.22231,571.775922 C1215.33793,574.925224 1214.87644,574.594018 1214.55684,575.340763 C1214.23725,576.087509 1214.04718,578.407026 1214.04722,579.9639 C1214.04725,581.520775 1213.92216,587.976854 1214.87642,590.629024 C1215.83068,593.281194 1215.49907,598.018842 1215.49907,598.018842 C1215.49907,598.018842 1217.14147,595.83468 1217.52341,596.776844 C1217.90536,597.719008 1216.8224,601.283145 1216.8224,601.283145 C1216.8224,601.283145 1221.25609,600.950343 1221.94115,601.283138 C1222.62621,601.615933 1222.88359,603.332959 1222.40431,603.994794 C1221.92504,604.656628 1219.02396,604.169346 1217.26151,604.724992 C1215.49905,605.280638 1216.11072,608.221352 1216.11072,608.221352 L1216.29777,626.331307 C1216.29777,626.331307 1217.52341,626.12297 1217.89366,626.331307 C1218.26391,626.539644 1218.55232,629.415394 1218.15473,629.706137 C1217.75714,629.996881 1216.83689,631.495763 1216.83689,631.495763 C1216.83689,631.495763 1222.47434,631.195679 1223.24244,631.495763 C1224.01054,631.795847 1223.78386,634.209552 1223.24244,634.56414 C1222.70103,634.918729 1218.98945,634.538345 1218.02169,635.328021 C1217.05394,636.117696 1217.32602,639.937154 1217.32602,639.937154 L1218.0472,661.040846 C1218.0472,661.040846 1223.48342,660.863359 1224.17553,661.040834 C1224.86764,661.21831 1225.0866,664.123646 1224.34624,664.422313 C1223.60588,664.720981 1219.41552,664.266155 1218.73137,665.232377 C1218.04721,666.198599 1219.05202,677.602357 1218.55232,680.697182 C1218.38753,681.717845 1216.81242,682.571155 1216.15573,683.755434 C1215.49905,684.939714 1216.15571,686.607863 1215.49905,687.497375 C1214.84239,688.386887 1209.92786,688.790821 1207.64079,688.003975 C1205.35371,687.217129 1204.14226,685.457352 1202.65141,683.077267 C1201.16056,680.697182 1200.30476,675.757362 1199.90974,670.640208 C1199.73186,668.335947 1199.73186,665.77771 1199.73186,665.77771 C1199.73186,665.77771 1198.36345,666.195375 1198.19064,667.030426 C1198.01784,667.865478 1196.96183,667.704025 1196.02698,667.704014 C1195.09213,667.704003 1194.56641,667.67089 1193.67077,667.030434 C1192.77513,666.389979 1192.70482,653.915708 1192.89192,653.369981 C1193.07902,652.824255 1194.10656,652.780811 1195.17759,652.824255 C1196.24862,652.867698 1196.35819,653.379098 1197.3087,653.549136 C1198.25922,653.719175 1199.22966,653.549136 1199.22966,653.549136 L1198.93404,636.180122 L1196.42541,636.180122 C1194.53382,639.063834 1194.14223,639.394467 1192.89194,639.22572 C1191.64164,639.056972 1190.48983,638.635233 1190.48993,636.951885 C1190.49023,632.033592 1192.17718,627.007701 1192.62414,625.559258 C1193.0711,624.110815 1193.46157,624.342086 1194.59378,624.540214 C1195.72599,624.738342 1196.96183,625.162196 1196.96183,625.559269 C1196.96183,625.956343 1199.22966,625.824121 1199.22966,625.824121 C1199.22966,625.824121 1199.11349,615.223129 1199.11348,611.989881 C1198.71394,611.382276 1197.88797,611.970153 1197.47815,611.566878 C1195.90097,610.314566 1187.85193,601.809345 1187.07285,600.56974 C1186.29378,599.330135 1188.32798,597.702486 1189.13357,597.702486 C1189.93915,597.702486 1191.88072,598.797525 1191.88072,598.797525 C1194.53055,595.674387 1198.31991,596.278659 1198.31991,596.278659 C1198.31991,596.278659 1197.14856,594.997504 1197.30871,593.452864 C1197.46885,591.908224 1198.90895,590.597071 1198.90895,590.597071 C1198.90895,590.597071 1199.22966,576.231469 1198.93404,575.123105 C1198.63842,574.014741 1189.97329,541.557161 1187.72849,534.74713 C1185.48369,527.937099 1174.69146,491.160289 1172.02982,483.411042 C1169.36818,475.661795 1157.62628,436.726258 1154.25147,427.522376 C1150.87666,418.318494 1146.3795,401.599896 1146.3795,401.599896 C1146.3795,401.599896 1143.39754,403.351226 1140.68264,404.416419 C1137.96774,405.481612 1137.24395,405.542307 1135.00003,405.051543 C1132.75612,404.560779 1131.5696,402.93138 1130.31436,401.340803 C1129.05912,399.750227 1127.04434,394.024443 1126.12879,391.357004 C1125.21323,388.689565 1125.16026,387.96579 1124.87924,385.505793 C1124.59822,383.045796 1124.87924,380.418708 1124.87924,380.418708 C1124.87924,380.418708 1121.49941,379.016844 1119.61945,379.281552 C1117.73949,379.54626 1117.07973,381.685712 1115.88099,381.685707 C1114.68224,381.685702 1110.34425,382.029748 1106.84837,382.588369 C1103.35249,383.14699 1100.50629,384.765134 1098.72932,384.76512 C1096.95236,384.765105 1097.00091,383.284865 1095.1694,383.284864 C1093.33789,383.284862 1094.63981,385.122362 1092.66867,385.122366 C1090.69754,385.122371 1091.17588,381.692799 1089.98142,380.452524 C1088.78695,379.212249 1086.30205,377.614719 1083.93658,377.61473 C1081.57112,377.614741 1081.68292,378.964096 1078.78459,380.324897 C1075.88626,381.685697 1067.5714,385.712507 1064.35128,387.059135 C1061.13116,388.405762 1055.84444,389.601853 1053.0061,390.479432 C1050.16777,391.35701 1048.30681,392.535108 1047.54268,393.826643 C1046.77855,395.118178 1045.88789,396.240095 1047.05781,396.864604 C1048.22772,397.489113 1053.66551,394.53024 1057.49759,394.530228 C1061.32967,394.530216 1062.45813,394.415699 1066.33277,393.567571 C1070.20741,392.719442 1073.26281,391.130665 1075.14286,391.130657 C1077.0229,391.130649 1078.90894,391.296998 1079.48491,392.913618 C1080.06087,394.530239 1079.69761,397.480367 1078.07228,398.244504 C1076.44695,399.00864 1071.13352,401.71336 1068.73314,402.720178 C1066.33276,403.726997 1060.45046,404.514578 1057.34488,405.612514 C1054.23929,406.71045 1048.15974,406.905302 1047.12707,408.966815 C1046.09441,411.028329 1045.79027,416.567193 1044.74634,422.044774 C1043.70241,427.522356 1044.9585,436.117005 1044.19383,441.386278 C1043.42916,446.655551 1041.93145,447.437667 1041.25241,450.335991 C1040.57337,453.234316 1041.96199,455.896519 1041.19787,457.206037 C1040.43375,458.515556 1039.91778,459.197347 1039.91778,463.123244 C1039.91778,467.049141 1040.33666,471.132137 1039.60908,473.576666 C1038.8815,476.021195 1037.03691,480.438512 1037.0369,482.760908 C1037.03688,485.083303 1036.08896,489.737622 1036.08897,495.306541 C1036.08898,500.875461 1036.75111,505.873403 1035.68972,510.252001 C1034.62834,514.630598 1032.8503,515.912915 1031.57021,521.377374 C1030.29011,526.841833 1029.99287,532.612386 1027.77357,539.427881 C1025.55427,546.243375 1024.96578,548.905136 1023.18281,552.078234 C1021.39985,555.251333 1018.70114,560.60416 1018.70114,560.60416 C1018.70114,560.60416 1022.03471,571.246822 1022.03472,577.30531 C1022.03472,583.363798 1017.84861,586.744287 1015.691,586.744261 C1013.53338,586.744234 1011.12915,586.726262 1011.12915,586.726262 C1011.12915,586.726262 1013.75422,589.640946 1013.75423,592.959809 C1013.75423,596.278672 1009.47218,599.862017 1007.82938,602.293494 C1006.18659,604.724971 1007.74431,605.353268 1006.96817,607.612926 C1006.19204,609.872583 1004.41508,610.388645 1003.78459,612.282223 C1003.1541,614.175801 1005.16722,617.393323 1003.73605,620.873053 C1002.30487,624.352783 1001.43167,624.186433 1000.32775,625.288187 C999.223828,626.389941 1000.58791,627.423326 998.975665,629.624235 C997.36342,631.825145 997.144151,631.4672 996.380035,634.209539 C995.61592,636.951877 994.727272,638.621936 993.301168,643.10362 C991.875064,647.585304 989.355325,655.491089 987.599946,657.847275 C985.844567,660.203461 984.853787,659.805832 983.895488,659.80586 C982.937189,659.805889 969.798699,659.217819 968.155359,660.04857 C966.512018,660.879322 965.335025,664.784387 963.532967,666.641 C961.73091,668.497613 959.214918,670.837417 958.299166,672.123511 C957.383414,673.409604 956.175871,678.765022 954.871779,680.54799 C953.567686,682.330957 950.714077,686.149405 949.974498,688.975741 C949.234919,691.802076 949.390906,699.144442 949.390904,701.83717 C949.390903,704.529897 950.420641,708.903584 951.094235,711.342115 C951.767829,713.780647 951.875817,717.370048 952.50086,719.238087 C953.125904,721.106126 953.217001,725.901974 953.21699,726.951345 C953.216979,728.000716 953.29663,733.998091 954.0842,735.841062 C954.87177,737.684034 955.669171,739.280451 956.245679,741.445746 C956.822186,743.611041 957.992089,748.575933 956.797093,750.917421 C955.602098,753.25891 950.365577,764.079356 950.365561,766.42684 C950.365544,768.774324 950.734808,773.745765 948.448973,776.202311 C946.163138,778.658857 946.438579,779.254999 945.685901,779.95313 C944.933222,780.65126 943.780766,780.953966 943.780766,780.953966 C943.780766,780.953966 943.871851,785.938535 943.107724,787.527307 C942.343598,789.116079 941.91381,790.642154 941.240769,790.642171 C940.567729,790.642188 939.401773,793.527905 938.471203,794.205314 C937.540634,794.882722 936.89065,796.631299 935.096555,796.631362 C933.30246,796.631425 932.667075,795.937973 932.213826,795.339176 C931.760577,794.740378 931.046181,793.378754 931.046181,793.378754 C931.046181,793.378754 930.248212,795.454549 931.231017,796.815574 C932.213821,798.176598 933.257764,799.295183 933.257763,800.746813 C933.257762,802.198442 932.073755,803.422219 931.140574,803.965738 C930.207393,804.509257 928.921718,805.847361 926.822823,805.84736 C924.723928,805.84736 923.011553,804.595077 922.346017,803.531614 C921.680481,802.468151 920.332991,798.017308 919.708627,795.698035 C919.084263,793.378763 917.491435,788.581093 917.179352,786.408227 C916.86727,784.235361 917.676475,783.131292 916.885778,781.794822 C916.09508,780.458352 914.937628,779.720871 913.820917,780.010088 C912.704205,780.299305 912.103125,781.559004 912.380488,782.864956 C912.657851,784.170907 914.642385,787.351316 915.764081,790.36504 C916.885778,793.378763 916.866439,792.620919 917.451304,794.826252 C918.03617,797.031585 918.156133,798.315651 918.618326,800.086062 C919.080519,801.856472 919.080519,801.796578 919.080519,803.130132 C919.080519,804.463685 918.279014,807.07717 916.510285,808.117782 C914.741556,809.158394 913.167647,809.971951 910.770609,809.97196 C908.373572,809.971968 905.210774,809.304122 903.685106,807.995736 C902.159438,806.687351 899.633484,803.681105 898.281004,801.718187 C896.928524,799.755269 895.988132,797.799591 895.56523,795.795339 C895.142328,793.791088 894.615067,791.854997 894.910925,789.418823 C895.206782,786.982648 895.687491,785.721052 895.687484,783.490361 C895.687476,781.25967 893.902958,774.083723 893.172347,772.322257 C892.441736,770.560792 890.564897,765.16316 890.564897,762.713093 C890.564897,760.263026 890.758885,756.927246 891.237291,755.198247 C891.715697,753.469248 891.67786,748.728806 892.425104,746.712858 C893.172348,744.696911 893.80524,738.826462 894.05224,736.292621 C894.299239,733.75878 894.902816,729.627936 894.902816,729.627936 C894.902816,729.627936 892.821591,729.223563 892.029444,728.897326 C891.237296,728.571089 889.419706,727.334644 889.419706,727.334644 C888.631297,729.627954 889.00284,774.300555 888.413402,775.50064 C887.823964,776.700724 887.142006,777.951076 886.920163,779.289458 C886.698321,780.627839 887.084003,784.047584 886.314094,786.045001 C885.544185,788.042419 884.261411,789.783911 883.720366,791.581337 C883.179321,793.378763 882.34065,794.41414 882.340648,796.212623 C882.340646,798.011105 882.712817,800.932474 882.712814,804.036637 C882.712812,807.140799 882.209252,809.582917 881.36761,811.656687 C880.525969,813.730458 875.306502,819.834769 873.542765,821.099312 C871.779028,822.363856 870.391411,824.441281 865.990078,824.441323 C861.588746,824.441365 857.600532,821.469024 856.702557,819.1549 C855.804582,816.840776 856.423744,814.037095 856.423744,814.037095 C856.423744,814.037095 854.237109,814.659135 852.397281,814.074104 C850.557452,813.489073 849.531393,812.695453 848.511783,810.674917 C847.492173,808.654381 848.610958,805.938635 848.610958,805.938635 C848.610958,805.938635 847.05992,806.78525 845.113427,806.031572 C843.166935,805.277895 841.09611,801.672671 839.986682,799.492883 C838.877255,797.313095 838.159743,796.580864 837.701915,794.081088 C837.244087,791.581311 837.262596,789.261877 837.262592,788.824812 C837.262589,788.387747 834.257196,785.114962 833.427409,783.175787 C832.597622,781.236612 831.932092,779.063442 831.599221,777.282047 C831.266351,775.500653 831.423326,773.945044 831.10896,772.768233 C830.794593,771.591422 829.701379,769.296701 829.167458,767.551253 C828.633537,765.805805 828.055323,764.798904 828.055326,763.129753 C828.055329,761.460601 828.135995,756.344675 828.135996,755.441091 C828.135998,754.537506 829.328176,751.810503 829.857733,750.901703 C830.38729,749.992903 831.18069,747.892774 831.642883,746.431966 C832.105076,744.971158 832.708654,740.967158 832.70865,739.843793 C832.708647,738.720429 832.868118,734.75822 833.272721,732.85996 C833.677325,730.9617 834.148202,728.713098 834.615846,728.023879 C834.079635,725.374439 832.751479,726.040358 832.197182,725.404578 C831.642885,724.768797 831.59777,721.624697 831.597766,719.266954 C831.597761,716.909212 832.261426,711.84796 832.767074,709.564229 C833.272722,707.280498 834.817319,695.507602 834.817315,692.241661 C834.817311,688.975719 834.550722,688.04595 835.002151,687.21617 C835.45358,686.38639 836.682882,686.803183 835.453579,683.945981 Z M848.269448,541.432518 C849.567151,538.286648 851.392455,538.690923 853.456446,536.472774 C855.520437,534.254624 857.427151,531.412913 859.949461,528.894068 C862.471771,526.375223 863.916357,526.344045 865.918683,523.671388 C867.92101,520.998731 874.779157,512.458008 877.113011,509.230726 C879.446865,506.003445 885.462163,498.913543 888.142441,493.902875 C890.822718,488.892206 892.998951,486.520244 895.525071,483.658787 C898.05119,480.797329 899.007666,481.232437 900.505947,480.014758 C902.004228,478.79708 903.151235,477.80042 903.78727,477.260692 C904.423305,476.720964 905.296636,476.567152 906.182788,476.567152 C907.06894,476.567152 909.4991,476.659301 909.4991,476.659301 C909.4991,476.659301 909.930395,477.302263 909.31411,477.81878 C908.697824,478.335298 906.76097,479.248124 906.760969,479.8606 C906.760968,480.473077 907.550468,481.301029 907.550468,481.301029 C907.550468,481.301029 907.373097,480.319265 908.135923,479.833579 C908.89875,479.347893 910.11608,478.377215 910.11608,478.377215 C910.11608,478.377215 909.873236,480.129771 909.873237,480.89606 C909.873238,481.662348 911.105462,483.584306 911.105465,484.720575 C911.105468,485.856843 911.533991,486.125668 910.42405,486.823019 C909.31411,487.520369 909.105565,488.067371 911.124172,488.067372 C913.142779,488.067372 912.926958,486.653964 913.90526,486.653964 C914.883561,486.653964 915.191878,486.326593 915.191876,487.540115 C915.191874,488.753637 919.810192,501.356683 920.442954,503.956436 C921.075715,506.556188 921.400807,509.151033 922.576291,512.137458 C923.751774,515.123883 926.53922,518.112766 926.844682,520.466673 C927.150144,522.820581 926.776471,527.15203 927.739236,530.356819 C928.702001,533.561607 931.944328,539.913284 932.920828,542.569958 C933.897329,545.226633 931.928133,548.35193 932.735587,551.030437 C933.543041,553.708944 933.884081,556.860006 933.884081,559.186679 C933.884081,561.513352 933.079328,563.722505 933.079326,565.784689 C933.079324,567.846873 934.1022,568.242385 934.102199,570.443436 C934.102198,572.644487 931.775526,576.884671 930.733514,578.832517 C929.691501,580.780363 929.014823,580.717554 928.147502,581.866051 C927.280181,583.014548 927.148918,583.37153 926.756355,584.978343 C926.363793,586.585157 925.927308,587.392361 924.380856,587.392363 C922.834404,587.392365 919.820738,585.412863 919.564102,584.356866 C919.307466,583.300869 919.217665,581.713446 918.74021,581.713442 C918.262754,581.713438 918.737511,583.077353 918.199944,583.077355 C917.662378,583.077357 914.888671,579.678733 913.865798,577.562329 C912.842926,575.445925 911.869611,574.666188 910.355545,573.416613 C908.841479,572.167039 907.741731,572.301245 907.251349,570.639718 C906.760968,568.97819 907.103455,568.699964 906.643121,567.998992 C906.182788,567.298021 905.170025,566.861293 905.472792,568.211958 C905.775558,569.562623 904.472492,568.095172 903.741096,566.796767 C903.0097,565.498362 901.958858,565.01011 900.922,562.849787 C899.885141,560.689463 900.362599,560.9461 900.362597,559.12117 C900.362595,557.296239 900.103504,557.397326 900.755406,555.66244 C901.407307,553.927554 903.634123,552.2123 903.634123,550.360135 C903.634122,548.50797 901.430861,549.945242 899.447433,553.103908 C897.464005,556.262574 896.441135,558.272496 896.441133,560.951006 C896.441131,563.629517 897.038077,564.774331 899.536741,567.707023 C902.035405,570.639715 905.644291,574.66128 907.299929,577.606983 C908.955567,580.552686 910.788349,581.182496 911.15662,582.33909 C911.524891,583.495684 910.875444,584.485181 912.004802,585.131934 C913.134161,585.778686 914.593265,584.63951 915.400721,586.015937 C916.208178,587.392365 914.945349,589.206737 915.79353,590.488953 C916.641711,591.771169 919.672057,591.399949 919.672057,593.598546 C919.672057,595.797143 916.899333,595.599635 916.150027,597.599013 C915.40072,599.598391 915.821009,601.866669 914.538799,604.021351 C913.256589,606.176032 911.405215,608.945804 909.873238,610.857839 C908.341261,612.769873 907.904233,611.406204 906.884057,612.535316 C905.863882,613.664428 907.776159,614.256216 906.234855,615.86818 C904.693552,617.480144 903.138513,617.785612 901.750554,619.19859 C900.362595,620.611569 900.461476,621.622919 899.080877,622.253225 C897.700278,622.88353 896.500263,623.873039 895.761017,625.479851 C895.021771,627.086662 894.784515,628.393162 894.784515,628.393162 C894.784515,628.393162 889.513861,615.827697 886.988205,611.717067 C884.46255,607.606436 884.56658,606.835781 879.777061,601.626221 C874.987543,596.416661 873.21772,597.167439 869.568202,593.828195 C865.918684,590.488952 861.274072,584.694956 855.431747,582.188444 C849.589421,579.681931 849.214032,580.025914 846.443025,578.258642 C843.672018,576.491371 844.193636,575.849768 842.453353,573.416609 C840.713071,570.983449 836.941027,570.639715 836.941027,570.639715 C836.941027,570.639715 837.084312,569.627151 838.909242,568.211958 C840.734171,566.796766 841.884627,567.342433 842.16899,565.226022 C842.453353,563.109612 840.948854,562.853223 839.797907,561.331302 C838.64696,559.809381 838.570165,558.599305 839.541514,557.130873 C840.512863,555.662442 840.406135,554.361339 842.108143,552.360736 C843.810151,550.360134 844.826154,552.354604 846.799276,549.169196 C848.772399,545.983787 847.953904,546.676911 847.953904,545.11377 C847.953903,543.550628 846.971745,544.578388 848.269448,541.432518 Z M860.714323,801.797448 C860.714323,801.797448 866.675154,793.065238 864.366114,791.003845 C862.057075,788.942452 861.094781,794.636163 861.094781,795.518405 C861.094781,796.400647 860.714323,801.797448 860.714323,801.797448 Z M953.964473,79.7679116 L967.63221,67.542702 C967.63221,67.542702 968.998754,73.8870731 969.813565,78.043217 C970.628376,82.1993608 972.462271,90.8415429 972.462271,90.8415429 C972.462271,90.8415429 971.073962,88.6342244 969.554307,87.6579025 C968.034652,86.6815807 962.958696,85.2646352 961.225983,84.0328747 C959.49327,82.8011143 957.265715,81.7022271 956.343612,80.9378173 C955.42151,80.1734075 953.964473,79.7679116 953.964473,79.7679116 Z M1065.02186,354.475654 C1065.02186,354.475654 1066.42047,354.119906 1067.83293,353.150587 C1069.24538,352.181268 1070.09942,350.895247 1071.28463,350.895247 C1072.46983,350.895247 1073.33338,351.361106 1073.33338,352.399427 C1073.33338,353.437747 1071.80193,354.271337 1071.16997,354.976634 C1070.53801,355.681932 1071.384,356.761363 1070.28081,357.312545 C1069.17762,357.863726 1068.3056,357.641229 1067.74492,357.167932 C1067.18424,356.694634 1065.02186,354.475654 1065.02186,354.475654 Z M1034.53514,267.063638 C1034.53514,267.063638 1035.18423,278.399064 1034.45055,287.337206 C1033.71687,296.275347 1031.57096,302.143351 1030.64626,309.226861 C1029.72156,316.310372 1028.63292,315.54106 1028.63292,320.718146 C1028.63292,325.895233 1029.32431,324.84984 1029.98528,327.628693 C1030.64626,330.407547 1029.75971,329.653103 1030.54631,331.127145 C1031.33291,332.601187 1046.25239,342.613263 1047.40261,343.385063 C1048.55284,344.156862 1049.91026,345.499333 1051.89592,345.499334 C1053.88158,345.499334 1057.98995,343.767187 1059.79979,343.576126 C1061.60964,343.385065 1063.98542,343.456101 1063.98542,343.456101 C1063.98542,343.456101 1064.04654,342.182596 1064.90359,341.345086 C1065.76063,340.507575 1067.25598,338.185965 1068.70886,338.00008 C1070.16174,337.814195 1070.63236,337.640006 1070.63236,337.640006 C1070.63236,337.640006 1070.93487,335.288941 1070.25379,333.753778 C1069.57271,332.218616 1067.62316,321.935554 1066.97657,319.4066 C1066.32997,316.877647 1065.8364,314.777728 1065.45783,313.372655 C1065.07926,311.967582 1065.35409,309.206863 1065.35409,309.206863 C1065.35409,309.206863 1057.87351,299.359917 1054.61763,295.608834 C1051.36174,291.857752 1049.28121,289.381436 1047.15491,287.566966 C1045.02861,285.752496 1042.59775,284.321814 1040.8464,281.714203 C1039.09505,279.106592 1038.24731,276.213666 1037.52771,274.031189 C1036.80811,271.848712 1034.53514,267.063638 1034.53514,267.063638 Z M1037.53432,348.909497 C1037.53432,348.909497 1037.11517,351.546637 1038.17686,352.096534 C1039.23854,352.646431 1040.01291,351.63982 1040.01291,351.071418 C1040.01291,350.503016 1037.53432,348.909497 1037.53432,348.909497 Z M1044.24784,366.078941 C1044.92476,366.88988 1048.81959,364.794096 1050.21721,363.985566 C1051.61484,363.177036 1055.4858,361.677575 1055.77553,361.102713 C1056.06526,360.52785 1054.69194,358.896774 1054.01503,358.896774 C1053.33811,358.896774 1049.4043,361.175638 1048.25983,362.032348 C1047.11536,362.889057 1043.57093,365.268003 1044.24784,366.078941 Z M1048.60366,379.503348 C1048.60366,379.503348 1052.8883,376.075635 1055.28148,375.221116 C1057.67466,374.366596 1059.28121,374.081464 1061.7403,373.122484 C1064.1994,372.163504 1066.76471,369.692581 1068.33053,369.400442 C1069.89634,369.108302 1071.06709,368.731192 1072.03614,369.493077 C1073.0052,370.254961 1073.33391,371.231023 1073.33391,371.231023 C1073.33391,371.231023 1069.2952,373.012987 1067.90261,373.334472 C1066.51002,373.655957 1063.33568,373.577994 1060.24128,374.861087 C1057.14688,376.144181 1056.82846,376.222362 1055.10212,377.154624 C1053.37578,378.086887 1048.60366,379.503348 1048.60366,379.503348 Z" id="Path-1" fill="#2B3E50" filter="url(#filter-1)" sketch:type="MSShapeGroup"></path>
    </g>
</svg>
